<svg id="_x31__x2C_5" enable-background="new 0 0 24 24" height="512" viewBox="0 0 24 24" width="512" xmlns="http://www.w3.org/2000/svg"><path d="m23.25 3.53v.75h-22.5v-.75c0-1.55 1.26-2.81 2.81-2.81h16.88c1.55 0 2.81 1.26 2.81 2.81z" fill="#607d8b"/><path d="m23.25 4.28v15.87c0 .62-.5 1.13-1.12 1.13h-20.26c-.62 0-1.12-.51-1.12-1.13v-15.87z" fill="#fff"/><path d="m23.25 16c-.414 0-.75-.336-.75-.75v-12.5c0-.689-.561-1.25-1.25-1.25h-18.5c-.689 0-1.25.561-1.25 1.25v12.5c0 .414-.336.75-.75.75s-.75-.336-.75-.75v-12.5c0-1.517 1.233-2.75 2.75-2.75h18.5c1.517 0 2.75 1.233 2.75 2.75v12.5c0 .414-.336.75-.75.75z"/><path d="m8.25 16c-.268 0-.521-.144-.656-.386l-1.094-1.969v1.605c0 .414-.336.75-.75.75s-.75-.336-.75-.75v-4.5c0-.342.231-.641.562-.726.33-.089.678.062.844.361l1.094 1.97v-1.605c0-.414.336-.75.75-.75s.75.336.75.75v4.5c0 .342-.231.641-.562.726-.063.016-.126.024-.188.024z"/><path d="m12.25 16h-.5c-.965 0-1.75-.785-1.75-1.75v-2.5c0-.965.785-1.75 1.75-1.75h.5c.965 0 1.75.785 1.75 1.75v2.5c0 .965-.785 1.75-1.75 1.75zm-.5-4.5c-.138 0-.25.112-.25.25v2.5c0 .138.112.25.25.25h.5c.138 0 .25-.112.25-.25v-2.5c0-.138-.112-.25-.25-.25z"/><path d="m17 16c-.414 0-.75-.336-.75-.75v-4.5c0-.414.336-.75.75-.75s.75.336.75.75v4.5c0 .414-.336.75-.75.75z"/><path d="m18.25 11.5h-2.5c-.414 0-.75-.336-.75-.75s.336-.75.75-.75h2.5c.414 0 .75.336.75.75s-.336.75-.75.75z"/><path d="m22.25 24h-1.5c-.414 0-.75-.336-.75-.75v-4.5c0-.414.336-.75.75-.75h1.5c.965 0 1.75.785 1.75 1.75v2.5c0 .965-.785 1.75-1.75 1.75zm-.75-1.5h.75c.138 0 .25-.112.25-.25v-2.5c0-.138-.112-.25-.25-.25h-.75z"/><path d="m.75 24c-.414 0-.75-.336-.75-.75v-3.5c0-.965.785-1.75 1.75-1.75h1.5c.414 0 .75.336.75.75s-.336.75-.75.75h-1.5c-.138 0-.25.112-.25.25v3.5c0 .414-.336.75-.75.75z"/><path d="m3.25 22h-2.5c-.414 0-.75-.336-.75-.75s.336-.75.75-.75h2.5c.414 0 .75.336.75.75s-.336.75-.75.75z"/><path d="m18.25 24c-.268 0-.521-.144-.656-.386l-1.094-1.97v1.605c0 .414-.336.75-.75.75s-.75-.335-.75-.749v-4.5c0-.342.231-.641.562-.726.331-.087.678.062.844.361l1.094 1.97v-1.605c0-.414.336-.75.75-.75s.75.336.75.75v4.5c0 .342-.231.641-.562.726-.063.016-.126.024-.188.024z"/><path d="m7.25 24h-.5c-.965 0-1.75-.785-1.75-1.75v-2.5c0-.965.785-1.75 1.75-1.75h.5c.965 0 1.75.785 1.75 1.75v2.5c0 .965-.785 1.75-1.75 1.75zm-.5-4.5c-.138 0-.25.112-.25.25v2.5c0 .138.112.25.25.25h.5c.138 0 .25-.112.25-.25v-2.5c0-.138-.112-.25-.25-.25z"/><path d="m12.25 24h-.5c-.965 0-1.75-.785-1.75-1.75v-3.5c0-.414.336-.75.75-.75s.75.336.75.75v3.5c0 .138.112.25.25.25h.5c.138 0 .25-.112.25-.25v-3.5c0-.414.336-.75.75-.75s.75.336.75.75v3.5c0 .965-.785 1.75-1.75 1.75z"/><path d="m23.25 5h-22.5c-.414 0-.75-.336-.75-.75s.336-.75.75-.75h22.5c.414 0 .75.336.75.75s-.336.75-.75.75z"/></svg>