<?xml version="1.0" encoding="UTF-8"?>
<svg viewBox="0 0 340.94931 177.35909" xmlns="http://www.w3.org/2000/svg">
 <g transform="translate(-16.499 -5.0704)">
  <path transform="translate(1.4739 -104.01)" d="m25.396 110.96h321.26a6 6 0 0 1 6 6v161.61a6 6 0 0 1 -6 6h-321.26a6 6 0 0 1 -6 -6v-161.61a6 6 0 0 1 6 -6" fill="#fff" stroke="#000" stroke-linecap="round" stroke-linejoin="round" stroke-width="3.75"/>
  <path transform="matrix(.82609 0 0 .82609 31.911 -57.781)" d="m154.75 196.49c0.00636 36.577-29.643 66.232-66.22 66.232s-66.226-29.655-66.22-66.232c-0.00636-36.577 29.643-66.232 66.22-66.232s66.226 29.655 66.22 66.232z"/>
  <path transform="matrix(.54891 0 0 .54891 221.45 -3.3177)" d="m154.75 196.49c0.00636 36.577-29.643 66.232-66.22 66.232s-66.226-29.655-66.22-66.232c-0.00636-36.577 29.643-66.232 66.22-66.232s66.226 29.655 66.22 66.232z"/>
  <path transform="matrix(.22826 0 0 .22826 249.84 59.688)" d="m154.75 196.49c0.00636 36.577-29.643 66.232-66.22 66.232s-66.226-29.655-66.22-66.232c-0.00636-36.577 29.643-66.232 66.22-66.232s66.226 29.655 66.22 66.232z" fill="#969696" stroke="#fff" stroke-linecap="round" stroke-linejoin="round" stroke-width="16.429"/>
  <path transform="matrix(.22826 0 0 .22826 84.839 59.688)" d="m154.75 196.49c0.00636 36.577-29.643 66.232-66.22 66.232s-66.226-29.655-66.22-66.232c-0.00636-36.577 29.643-66.232 66.22-66.232s66.226 29.655 66.22 66.232z" fill="#969696" stroke="#fff" stroke-linecap="round" stroke-linejoin="round" stroke-width="16.429"/>
  <path transform="translate(1.4739 -104.01)" d="m106.3 126.97h159.45v135.12h-159.45z" stroke="#fff" stroke-linecap="round" stroke-linejoin="round" stroke-width="3.75"/>
  <path d="m126.74 66.487h121.51a5.3984 5.3984 0 0 1 5.3984 5.3984v65.14a5.3984 5.3984 0 0 1 -5.3984 5.3984h-121.51a5.3984 5.3984 0 0 1 -5.3984 -5.3984v-65.14a5.3984 5.3984 0 0 1 5.3984 -5.3984" fill="#969696" stroke="#fff" stroke-linecap="round" stroke-linejoin="round" stroke-width="3.75"/>
  <path transform="translate(1.4739 -104.01)" d="m25.406 110.97c-3.324 0-6 2.676-6 6v161.59c0 3.324 2.676 6 6 6h321.25c3.324 0 6-2.676 6-6v-161.59c0-3.324-2.676-6-6-6h-321.25zm25.781 54.438h269.78c11.638 0 21 19.247 21 43.156s-9.3622 43.156-21 43.156h-269.78c-11.638 0-21.031-19.247-21.031-43.156s9.3934-43.156 21.031-43.156z" stroke="#000" stroke-linecap="round" stroke-linejoin="round" stroke-width="3.75"/>
  <path d="m53.474 61.613c-11.638 0-21 19.154-21 42.938s9.3622 42.906 21 42.906h54.312v-85.844h-54.312zm213.75 0v85.844h54.406c11.638 0 21-19.123 21-42.906s-9.3622-42.938-21-42.938h-54.406z" fill="none" stroke="#fff" stroke-linecap="round" stroke-linejoin="round" stroke-width="3.75"/>
  <path d="m304.35 103.36v-48.352" fill="none" stroke="#000" stroke-width="3.75"/>
  <path d="m52.361 103.87v-48.352" fill="none" stroke="#000" stroke-width="3.75"/>
  <g transform="translate(4.7109 -94.346)" fill="none" stroke="#000" stroke-linecap="square" stroke-width="7.5">
   <path d="m133.14 178.8h71.618"/>
   <path d="m133.13 198.8h99.309"/>
   <path d="m133.19 218.8h71.871"/>
  </g>
  <path d="m18.374 49.263h6.1374v-23.753h325.27v24.473h5.7968" fill="none" stroke="#fff" stroke-width="3.75"/>
 </g>
</svg>
